PathFileType	4	(X/Y/Z)	C:\Users\°ÂÌØÂü\Desktop\20210112\bx_n_5_1801-Unnamed.trc
DataRate	CameraRate	NumFrames	NumMarkers	Units	OrigDataRate	OrigDataStartFrame	OrigNumFrames
50.00	50.00	       8	0	mm	50.00	403	       460
Frame#	Time	
		

403	8.040	-695.84460	275.82785	880.81372	-596.31281	-22.69985	1062.89014	-728.40564	240.67635	645.94196	-589.58081	-16.30878	808.87189	-609.65991	81.38300	1362.21216	-717.63910	65.37624	218.41696	-766.79572	249.67735	505.11963	-592.16724	219.94394	174.56961	-687.57104	64.16582	579.04730	-607.83093	-75.73330	157.68193	-673.73224	50.36030	163.09796	-650.83783	-69.96840	159.24261	-713.11084	-40.74957	569.73816	-767.77887	226.19928	206.13142	-709.83276	154.18961	216.79652	-882.53522	296.16849	144.69659	-725.94788	238.72992	580.06732	-600.45227	23.72666	170.83783	-552.51886	-27.92343	165.67841	-674.66541	173.40816	158.57336	-671.02350	199.38768	538.23737	-660.82336	298.59781	157.60355	-624.36700	306.66470	158.41231	-555.89105	256.21866	165.24126	-528.38684	304.41470	146.58427	-751.82477	71.00478	1848.88135	-726.29266	259.92529	1541.65735	-805.81946	76.31738	1051.39502	-518.01904	-72.86866	143.20522	-792.50543	38.14725	174.96643	-794.83997	176.75156	185.47458	-721.51996	-99.02113	1536.12488	-701.37695	260.34705	749.27100	-759.87988	-51.18796	489.52286	-760.45557	-22.75986	205.73303	-875.85522	-78.73365	141.22168	-703.88000	-45.83504	618.56158	-663.08282	5.26409	521.13715	-613.70563	227.51909	1073.78076	-661.41632	-86.72147	875.20624	-683.28473	137.79272	583.17377				-598.23816	214.66364	799.55920				-684.64160	-71.84576	760.97662	
404	8.060	-694.89990	275.92233	880.61536	-595.72058	-22.31412	1062.53857	-728.00446	240.71970	645.57153	-589.31256	-15.95799	808.92499	-610.00507	81.59049	1362.53223	-717.27399	65.42282	218.08211	-766.45557	249.63150	505.16827	-592.16724	219.94394	174.56961	-687.40234	64.19148	578.94055	-607.81012	-75.64250	157.77861	-673.73224	50.36030	163.09796	-650.96545	-70.03668	159.54150	-712.60077	-40.23976	569.35468	-767.79224	226.11761	206.21362	-709.73749	154.28668	216.75238	-882.59625	296.22037	144.63243	-725.68164	238.85252	579.99469	-600.36096	23.77190	170.94897	-552.58685	-27.79614	165.61789	-674.66278	173.27292	158.48708	-670.80621	199.48029	538.15729	-660.75311	298.59656	157.46764	-624.43738	306.83768	158.57408	-555.84656	256.05542	165.04582	-528.28857	304.37302	146.40814	-753.39624	70.64738	1848.55798	-727.15784	260.18170	1541.59912	-804.91022	77.11468	1051.21948	-518.05585	-72.88457	143.42905	-793.20300	38.35480	175.22258	-794.73895	177.01161	185.51257	-723.15063	-98.74899	1535.69031	-701.06573	260.32776	749.03107	-759.43866	-50.99606	489.74817	-760.62231	-22.53793	205.91270	-875.67786	-78.65668	141.12025	-703.96191	-44.89056	617.91888	-662.81848	5.57691	521.14105	-613.40479	227.77068	1073.57483	-661.15369	-86.60913	875.26843	-683.17963	137.99667	583.04346				-597.60779	214.95819	799.69037				-684.49170	-71.74050	761.18732	
405	8.080	-694.44220	275.59863	880.20612	-595.24475	-22.27571	1062.33594	-727.50391	241.14845	645.99420	-588.96326	-15.84353	808.94202	-610.35608	81.94441	1362.31165	-717.60498	65.63067	217.93230	-766.28595	249.61269	505.13266	-592.16724	219.94394	174.56961	-686.68433	64.53960	578.75354	-607.91290	-75.72292	157.74715	-673.61517	50.29256	162.95139	-650.98096	-70.03085	159.49129	-699.08875	-52.59272	582.49030	-767.76196	226.07935	206.28706	-709.26355	153.89200	216.62524	-882.55884	296.08118	144.59036	-725.57025	238.85780	580.08185	-600.36102	23.67717	171.06445	-552.36084	-27.96703	165.73888	-674.60852	173.16641	158.28522	-670.57605	199.53587	538.04541	-660.87427	298.65973	157.47249	-624.30078	306.73767	158.53331	-555.69220	256.11511	164.84589	-528.38324	304.07681	146.40816	-754.92664	70.55743	1848.35034	-727.72351	260.11407	1541.70447	-804.37921	77.42159	1051.06030	-518.03943	-72.72984	143.42854	-793.20300	38.35480	175.22258	-794.85895	176.73895	185.47481	-724.11285	-98.78429	1535.52808	-700.25690	260.64819	748.71002	-759.33881	-50.90171	489.85638	-760.56744	-22.42668	205.96130	-875.82855	-78.79845	141.17526	-704.08545	-44.34192	618.03711	-663.16449	6.19129	520.96094	-612.35748	228.18216	1074.07385	-660.30609	-86.50608	875.30432	-682.79315	137.92273	583.28223				-596.84692	215.02048	799.59937				-683.87463	-71.59691	761.06940	
406	8.100	-693.44806	275.56244	879.83704	-594.58368	-22.01071	1062.38574	-727.19922	241.30273	645.96417	-588.53949	-15.74931	808.91174	-610.65503	82.19955	1362.25134	-717.34979	65.37795	217.77638	-766.41040	249.60849	505.23825	-592.16724	219.94394	174.56961	-686.35785	64.55373	578.72107	-607.84277	-75.68229	157.94588	-673.73224	50.36030	163.09796	-650.99512	-69.97809	159.56525	-698.86060	-52.28920	581.97443	-767.76196	226.07935	206.28706	-709.95557	154.07692	216.53838	-882.63641	296.19785	144.62160	-725.55884	238.93285	580.09589	-600.30255	23.79545	171.01688	-552.41296	-27.99406	165.67230	-674.49353	173.34398	158.28445	-670.38721	199.54512	538.04565	-660.80603	298.52298	157.64699	-624.40094	306.72751	158.54353	-555.71429	256.07410	164.97821	-528.28748	304.41156	146.34212	-756.14221	70.39142	1848.16663	-728.15717	260.37741	1541.71704	-803.65631	77.30645	1050.90320	-518.05438	-72.86588	143.29944	-793.32520	38.35430	175.38954	-794.80133	176.75885	185.52705	-724.74988	-98.55775	1535.26697	-700.03900	260.95859	748.89307	-758.96777	-50.89057	490.19968	-760.61951	-22.36234	206.06969	-875.85522	-78.73365	141.22168	-703.10071	-44.62163	618.49548	-662.73816	6.31786	520.75055	-611.54242	228.03896	1073.82983	-660.11383	-86.46328	875.34375	-682.62537	137.98045	583.54352				-596.50494	214.86633	799.33167				-683.62592	-71.41432	760.85028	
407	8.120	-693.51782	275.64114	879.98938	-594.33221	-22.10830	1062.18848	-727.27191	241.00780	645.57190	-588.40985	-15.84123	809.02032	-611.25488	82.61819	1362.22742	-717.63843	65.74068	217.83546	-766.34778	249.70131	505.11093	-592.16724	219.94394	174.56961	-686.17029	64.86005	578.65192	-607.91998	-75.47844	157.93321	-673.73224	50.36030	163.09796	-650.92242	-69.94547	159.62473	-712.07758	-39.69464	568.81287	-767.67004	226.02473	206.17126	-709.73615	154.11165	216.76695	-882.53766	296.18567	144.65939	-725.40869	239.05887	580.21887	-600.40417	23.72979	170.93016	-552.45618	-27.95218	165.83200	-674.60852	173.16641	158.28522	-670.49219	199.63786	538.14825	-660.88171	298.76605	157.69930	-624.19049	306.60522	158.58765	-555.59863	255.89812	165.09357	-528.25543	304.53729	146.44574	-757.46387	70.07415	1847.86267	-728.26202	260.52472	1541.77869	-803.24500	77.76415	1050.82239	-518.01416	-72.78627	143.45686	-793.32281	38.40765	175.45119	-794.83997	176.75156	185.47458	-725.53241	-98.45030	1535.04028	-699.88208	260.90945	748.83887	-758.89136	-50.72688	490.44543	-760.51837	-22.31726	205.89784	-875.85522	-78.73365	141.22168	-702.98901	-44.18915	618.19757	-662.07690	5.78060	520.91687	-611.30841	228.19963	1073.73511	-660.00299	-86.39738	875.29376	-682.62537	137.98045	583.54352				-596.14349	215.08803	799.21313				-683.45654	-71.27686	760.78845	
408	8.140	-692.88562	275.63156	880.00592	-593.99121	-22.19042	1061.89734	-727.25018	241.37230	646.07605	-588.42798	-15.86659	808.74988	-611.21838	82.78017	1362.21167	-717.61914	65.67097	217.89888	-766.74591	249.48679	505.14203	-592.10339	219.86414	174.63890	-685.72528	64.73431	578.91577	-608.00592	-75.86897	157.82445	-673.82013	50.38186	162.96698	-650.92242	-69.94547	159.62473	-712.00702	-39.69669	568.92096	-767.76196	226.07935	206.28706	-709.89905	153.85071	216.81113	-882.50006	296.18253	144.69447	-725.57025	238.85780	580.08185	-600.49042	23.62218	170.81754	-552.60577	-27.85847	165.58386	-674.49353	173.34398	158.28445	-670.57715	199.70424	538.10614	-660.87762	298.59692	157.41884	-624.10999	306.72336	158.52144	-555.63837	256.05353	164.82774	-528.25494	304.46338	146.47777	-758.11298	70.05337	1847.78918	-728.38983	260.67331	1541.64124	-802.98462	77.99666	1051.00476	-517.98822	-72.85638	143.37251	-793.10791	38.47632	175.27504	-794.87421	176.61620	185.32759	-726.49713	-97.98433	1534.92969	-699.56744	260.88727	748.81018	-758.77325	-50.73898	490.33984	-760.61951	-22.36234	206.06969	-875.94965	-78.65163	141.20186	-702.90289	-44.36655	618.12659	-662.00018	5.88395	520.88611	-610.45081	229.07803	1073.22986	-659.59039	-86.56611	875.55371	-683.02533	138.07504	583.10248				-595.99854	215.08731	799.11780				-683.32715	-71.24465	760.58936	
409	8.160	-692.57971	275.50748	879.84277	-594.24237	-22.41733	1061.63855	-727.52881	241.22771	646.13562	-588.48718	-16.20664	808.65723	-611.13098	82.80432	1362.20435	-717.56372	65.89713	218.16275	-766.98364	249.31067	505.11835	-592.16724	219.94394	174.56961	-685.59570	64.75465	579.06055	-607.92291	-75.75478	158.06963	-673.73224	50.36030	163.09796	-650.96545	-70.03668	159.54150	-698.55792	-52.57334	582.29144	-767.94940	226.06918	206.20926	-710.26788	153.81168	216.44472	-882.62158	296.14899	144.58987	-725.90308	238.88136	579.84692	-600.37268	23.79908	170.84911	-552.36017	-27.86804	165.79973	-674.49353	173.34398	158.28445	-670.78961	199.65816	538.17395	-660.92218	298.75403	157.49342	-624.45410	306.70529	158.43414	-555.75116	256.21671	164.96536	-528.04767	304.06216	146.28752	-759.13715	69.96329	1847.57031	-728.46942	261.15244	1541.60681	-802.33057	78.18835	1050.77942	-518.02209	-72.80202	143.44301	-793.35571	38.47674	175.36848	-794.89758	176.73166	185.42233	-726.91943	-97.73581	1535.23071	-699.39569	260.77109	748.96375	-758.76129	-50.80755	490.29477	-760.66858	-22.47175	206.13313	-875.85522	-78.73365	141.22168	-702.84406	-44.45731	618.35382	-662.62164	6.36892	520.58032	-609.74579	229.02429	1073.22375	-659.52997	-86.69196	875.51404	-683.12720	138.08728	583.15930				-595.85394	214.95868	798.86243				-682.95264	-71.18341	760.51349	
410	8.180	-692.37994	275.44696	879.95770	-593.84491	-22.94104	1061.85596	-727.68579	241.16895	645.94434	-588.23743	-16.42614	808.52521	-611.24017	82.96337	1362.21106	-717.63843	65.74068	217.83546	-767.26947	249.35837	505.19232	-592.03918	219.95631	174.63954	-685.10986	64.62798	579.04535	-607.99329	-75.46445	158.05557	-673.82013	50.38186	162.96698	-650.92584	-69.92652	159.47995	-698.48224	-52.46226	582.34259	-768.08221	225.67760	206.12552	-710.09912	153.77661	216.53055	-882.53406	296.09598	144.57982	-726.07996	238.94354	580.01349	-600.41095	23.95648	170.85544	-552.45319	-27.98190	165.48190	-674.79047	173.37714	158.15868	-671.09186	199.56177	538.30560	-661.03564	298.79486	157.44513	-624.51935	306.82669	158.51614	-555.94043	256.12747	164.88066	-528.24139	304.17792	146.49892	-759.77838	70.28278	1847.53760	-728.67694	261.38947	1541.46399	-802.21289	78.34058	1050.70203	-518.00220	-72.94048	143.29062	-793.34717	38.47366	175.51132	-794.88898	176.81377	185.39937	-727.09436	-97.50594	1535.19031	-699.26031	260.88904	749.03625	-758.89935	-50.76313	490.39658	-760.61481	-22.16719	206.14804	-875.85522	-78.73365	141.22168	-702.98590	-44.49378	618.04224	-662.53394	6.11534	520.77576	-609.37604	228.62381	1073.00073	-659.38641	-86.99310	875.61035	-683.40833	138.21399	582.77307				-595.64691	214.63736	798.79639				-683.03857	-71.52646	760.46106	
